ffmpeg started on 2016-11-24 at 03:02:54
Report written to "Output/NVENCh264/results/ffmpeg/sintelfast14000k.log"
Command line:
Tools/ffmpeg/ffmpeg -benchmark -y -i Input/y4m/sintel.y4m -c:v h264_nvenc -preset fast -b:v 14000k -an Output/NVENCh264/encoded/sintelfast14000k.mkv
ffmpeg version N-82227-gdb23fde Copyright (c) 2000-2016 the FFmpeg developers
  built with gcc 5.4.0 (Ubuntu 5.4.0-6ubuntu1~16.04.2) 20160609
  configuration: --prefix=/home/jaroslav/ffmpeg_build --pkg-config-flags=--static --extra-cflags=-I/home/jaroslav/ffmpeg_build/include --extra-ldflags=-L/home/jaroslav/ffmpeg_build/lib --bindir=/home/jaroslav/bin --enable-gpl --enable-libass --enable-libfdk-aac --enable-libfreetype --enable-libmp3lame --enable-libopus --enable-libtheora --enable-libvorbis --enable-libvpx --enable-libx264 --enable-libx265 --enable-nvenc --enable-libmfx --enable-libxvid --enable-libgsm --enable-libopencore-amrnb --enable-version3 --enable-nonfree
  libavutil      55. 35.100 / 55. 35.100
  libavcodec     57. 66.101 / 57. 66.101
  libavformat    57. 57.100 / 57. 57.100
  libavdevice    57.  2.100 / 57.  2.100
  libavfilter     6. 66.100 /  6. 66.100
  libswscale      4.  3.100 /  4.  3.100
  libswresample   2.  4.100 /  2.  4.100
  libpostproc    54.  2.100 / 54.  2.100
Input #0, yuv4mpegpipe, from 'Input/y4m/sintel.y4m':
  Duration: 00:00:20.83, start: 0.000000, bitrate: 2057307 kb/s
    Stream #0:0: Video: rawvideo (I420 / 0x30323449), yuv420p(progressive), 4096x1744, SAR 1:1 DAR 256:109, 24 fps, 24 tbr, 24 tbn, 24 tbc
Output #0, matroska, to 'Output/NVENCh264/encoded/sintelfast14000k.mkv':
  Metadata:
    encoder         : Lavf57.57.100
    Stream #0:0: Video: h264 (h264_nvenc) (Main) (H264 / 0x34363248), yuv420p, 4096x1744 [SAR 1:1 DAR 256:109], q=-1--1, 14000 kb/s, 24 fps, 1k tbn, 24 tbc
    Metadata:
      encoder         : Lavc57.66.101 h264_nvenc
    Side data:
      cpb: bitrate max/min/avg: 0/0/14000000 buffer size: 28000000 vbv_delay: -1
Stream mapping:
  Stream #0:0 -> #0:0 (rawvideo (native) -> h264 (h264_nvenc))
Press [q] to stop, [?] for help
frame=   19 fps=0.0 q=0.0 size=       0kB time=00:00:00.00 bitrate=N/A speed=   0x    frame=   40 fps= 39 q=32.0 size=       1kB time=00:00:00.37 bitrate=  15.6kbits/s speed=0.368x    frame=   61 fps= 40 q=33.0 size=       1kB time=00:00:01.25 bitrate=   4.7kbits/s speed=0.817x    frame=   82 fps= 40 q=32.0 size=       1kB time=00:00:02.12 bitrate=   2.8kbits/s speed=1.04x    frame=  102 fps= 40 q=32.0 size=    5122kB time=00:00:02.95 bitrate=14181.6kbits/s speed=1.16x    frame=  123 fps= 40 q=31.0 size=    5122kB time=00:00:03.83 bitrate=10945.0kbits/s speed=1.26x    frame=  144 fps= 40 q=29.0 size=    5122kB time=00:00:04.70 bitrate=8911.3kbits/s speed=1.32x    frame=  164 fps= 40 q=31.0 size=    8483kB time=00:00:05.54 bitrate=12536.8kbits/s speed=1.36x    frame=  169 fps= 35 q=31.0 size=    8483kB time=00:00:05.75 bitrate=12083.4kbits/s speed= 1.2x    frame=  170 fps= 21 q=31.0 size=    8483kB time=00:00:05.79 bitrate=11995.8kbits/s speed=0.702x    frame=  171 fps= 15 q=31.0 size=    8483kB time=00:00:05.83 bitrate=11911.5kbits/s speed=0.495x    frame=  172 fps= 14 q=31.0 size=    8483kB time=00:00:05.87 bitrate=11826.4kbits/s speed=0.473x    frame=  193 fps= 15 q=30.0 size=    8483kB time=00:00:06.75 bitrate=10293.5kbits/s speed=0.522x    frame=  214 fps= 16 q=30.0 size=    8483kB time=00:00:07.62 bitrate=9112.5kbits/s speed=0.568x    frame=  234 fps= 17 q=31.0 size=   13615kB time=00:00:08.45 bitrate=13185.0kbits/s speed=0.607x    frame=  255 fps= 18 q=31.0 size=   13615kB time=00:00:09.33 bitrate=11949.0kbits/s speed=0.646x    frame=  276 fps= 18 q=30.0 size=   13615kB time=00:00:10.20 bitrate=10924.8kbits/s speed=0.682x    frame=  297 fps= 19 q=30.0 size=   17767kB time=00:00:11.08 bitrate=13131.6kbits/s speed=0.716x    frame=  318 fps= 20 q=30.0 size=   17767kB time=00:00:11.95 bitrate=12170.8kbits/s speed=0.747x    frame=  339 fps= 21 q=27.0 size=   17767kB time=00:00:12.83 bitrate=11341.1kbits/s speed=0.777x    frame=  360 fps= 21 q=27.0 size=   17767kB time=00:00:13.70 bitrate=10617.2kbits/s speed=0.805x    frame=  381 fps= 22 q=26.0 size=   17767kB time=00:00:14.58 bitrate=9980.2kbits/s speed=0.832x    frame=  401 fps= 22 q=26.0 size=   22929kB time=00:00:15.41 bitrate=12182.8kbits/s speed=0.855x    frame=  422 fps= 23 q=25.0 size=   22929kB time=00:00:16.29 bitrate=11528.5kbits/s speed=0.879x    frame=  443 fps= 23 q=26.0 size=   22929kB time=00:00:17.16 bitrate=10941.0kbits/s speed= 0.9x    frame=  464 fps= 24 q=27.0 size=   26412kB time=00:00:18.04 bitrate=11991.8kbits/s speed=0.921x    frame=  485 fps= 24 q=27.0 size=   26412kB time=00:00:18.91 bitrate=11437.2kbits/s speed=0.941x    frame=  500 fps= 24 q=27.0 Lsize=   32770kB time=00:00:20.79 bitrate=12910.8kbits/s speed=1.01x    
video:32765kB audio:0kB subtitle:0kB other streams:0kB global headers:0kB muxing overhead: 0.014873%
bench: utime=0.952s
bench: maxrss=838624kB
